<svg xmlns="http://www.w3.org/2000/svg" width="122" height="122" viewBox="0 0 122 122">
  <g id="Pending_OUT" data-name="Pending OUT" transform="translate(1031 -9445)">
    <g id="Sent_Request" data-name="Sent Request" transform="translate(-3866 779)">
      <rect id="Rectangle_5760" data-name="Rectangle 5760" width="120" height="120" rx="60" transform="translate(2835 8668)" fill="#111432"/>
      <g id="Group_30688" data-name="Group 30688" transform="translate(2867.965 8691.973)">
        <g id="Accets" transform="translate(3.325 16.758)">
          <path id="Path_44727" data-name="Path 44727" d="M11.809,25.267a12.816,12.816,0,1,0,0-23.683" transform="translate(18.205 -0.61)" fill="none" stroke="#fff" stroke-miterlimit="10" stroke-width="2"/>
          <path id="Path_44728" data-name="Path 44728" d="M15.1,13.426A12.808,12.808,0,0,1,23.039,1.584a12.816,12.816,0,1,0,0,23.683A12.808,12.808,0,0,1,15.1,13.426Z" transform="translate(7.37 -0.61)" fill="none" stroke="#fff" stroke-miterlimit="10" stroke-width="2"/>
          <line id="Line_832" data-name="Line 832" y2="6.036" transform="translate(34.935 0.001)" fill="none" stroke="#fff" stroke-miterlimit="10" stroke-width="2"/>
          <line id="Line_833" data-name="Line 833" y2="6.036" transform="translate(34.935 19.319)" fill="none" stroke="#fff" stroke-miterlimit="10" stroke-width="2"/>
          <path id="Path_44730" data-name="Path 44730" d="M18.73,6.151a3.168,3.168,0,0,0-6.337,0,3.129,3.129,0,0,0,3.123,3.162A3.1,3.1,0,0,1,18.73,12.5a3.025,3.025,0,0,1-3.17,3.049,3.079,3.079,0,0,1-3.167-3" transform="translate(19.402 3.542)" fill="none" stroke="#fff" stroke-miterlimit="10" stroke-width="2"/>
          <rect id="Rectangle_2113" data-name="Rectangle 2113" width="6.422" height="15.868" rx="0.2" transform="translate(0 31.615)" fill="none" stroke="#fff" stroke-miterlimit="10" stroke-width="2"/>
          <path id="Path_44731" data-name="Path 44731" d="M2.956,15.594c3.142-1.533,6.9-3.1,8.138-3.183a7.746,7.746,0,0,1,3.309.427c1.12.389,9.244,3.7,10.889,4.358s3.63,2.595,3.63,7.125" transform="translate(3.466 19.205)" fill="none" stroke="#fff" stroke-miterlimit="10" stroke-width="2"/>
          <path id="Path_44732" data-name="Path 44732" d="M17.562,17.384,27.9,21.6S40.019,15.57,41.67,14.765s5.056-.285,5.566,4.059c0,0-12.536,6.632-14.605,7.681a19.234,19.234,0,0,1-7.39,1.659,22.3,22.3,0,0,1-6.915-1.577c-2.331-.851-15.318-6.148-15.318-6.148" transform="translate(3.556 22.791)" fill="none" stroke="#fff" stroke-miterlimit="10" stroke-width="2"/>
        </g>
        <path id="Path_49160" data-name="Path 49160" d="M11.781,4.854V0a31.215,31.215,0,0,0,5.564,4.01,37.476,37.476,0,0,0,6.486,3.111s-3.406,1.6-6.427,3.146A31.36,31.36,0,0,0,11.781,14.1V9.664A8.381,8.381,0,0,0,4.825,12.3C1.735,15.553.279,21.707.279,21.707s-1.6-9.291,2.837-13.3S11.781,4.854,11.781,4.854Z" transform="translate(-0.001 8.543) rotate(-21)" fill="#fff"/>
      </g>
    </g>
    <g id="Path_49202" data-name="Path 49202" transform="translate(-945 9445)" fill="#df5060">
      <path d="M 18 35 C 13.45913982391357 35 9.190059661865234 33.231689453125 5.979189872741699 30.02082061767578 C 2.768310070037842 26.80994033813477 1 22.54087066650391 1 18 C 1 13.45913982391357 2.768310070037842 9.190059661865234 5.979189872741699 5.979189872741699 C 9.190059661865234 2.768310070037842 13.45913982391357 1 18 1 C 22.54087066650391 1 26.80994033813477 2.768310070037842 30.02082061767578 5.979189872741699 C 33.231689453125 9.190059661865234 35 13.45913982391357 35 18 C 35 22.54087066650391 33.231689453125 26.80994033813477 30.02082061767578 30.02082061767578 C 26.80994033813477 33.231689453125 22.54087066650391 35 18 35 Z" stroke="none"/>
      <path d="M 18 2 C 13.72624969482422 2 9.70829963684082 3.664291381835938 6.686290740966797 6.686290740966797 C 3.664291381835938 9.70829963684082 2 13.72624969482422 2 18 C 2 22.27375984191895 3.664291381835938 26.29170989990234 6.686290740966797 29.3137092590332 C 9.708290100097656 32.33570861816406 13.72624969482422 34 18 34 C 22.27375984191895 34 26.29170989990234 32.33570861816406 29.3137092590332 29.3137092590332 C 32.33570861816406 26.29170989990234 34 22.27375984191895 34 18 C 34 13.72624969482422 32.33570861816406 9.708290100097656 29.3137092590332 6.686290740966797 C 26.29170989990234 3.664291381835938 22.27375984191895 2 18 2 M 18 0 C 27.94112968444824 0 36 8.058879852294922 36 18 C 36 27.94112968444824 27.94112968444824 36 18 36 C 8.058879852294922 36 0 27.94112968444824 0 18 C 0 8.058879852294922 8.058879852294922 0 18 0 Z" stroke="none" fill="#fff"/>
    </g>
  </g>
</svg>
