<?xml version="1.0" encoding="iso-8859-1"?>
<!-- Generator: Adobe Illustrator 26.1.0, SVG Export Plug-In . SVG Version: 6.00 Build 0)  -->
<svg version="1.1" id="Layer_1" xmlns="http://www.w3.org/2000/svg" xmlns:xlink="http://www.w3.org/1999/xlink" x="0px" y="0px"
	 viewBox="0 0 80 80" enable-background="new 0 0 80 80" xml:space="preserve">
<g id="RM" transform="translate(0 0.004)">
	<path id="c" fill="#ECF1F4" d="M45.6,40.9c-1.1,0-2.2-0.2-3.2-0.6l0.6-1.5c3.4,1.4,7.4-0.2,8.8-3.7c1.4-3.4-0.2-7.4-3.7-8.8
		c-1.7-0.7-3.5-0.7-5.2,0l-0.6-1.5c4.3-1.7,9.1,0.3,10.9,4.6c1.7,4.3-0.3,9.1-4.6,10.9C47.7,40.7,46.7,40.9,45.6,40.9z"/>
	<path id="d" fill="#ECF1F4" d="M39.8,40.9c-4.6,0-8.3-3.7-8.4-8.3s3.7-8.3,8.3-8.4c1.1,0,2.2,0.2,3.2,0.6l1.8,0.7L43,26.3
		c-2.5,1-4.2,3.5-4.2,6.2v0c0,2.7,1.6,5.2,4.2,6.2l1.8,0.7L43,40.3C42,40.7,40.9,40.9,39.8,40.9z M39.8,25.8c-3.7,0-6.8,2.9-6.8,6.7
		c0,3.7,2.9,6.8,6.7,6.8c0.1,0,0.1,0,0.2,0c0.3,0,0.5,0,0.8,0c-2.1-1.6-3.4-4.1-3.4-6.7v0c0-2.6,1.3-5.1,3.4-6.7
		C40.3,25.8,40.1,25.8,39.8,25.8z"/>
	<path id="e" fill="#ECF1F4" d="M34.1,40.9c-4.6,0-8.4-3.7-8.4-8.3s3.7-8.4,8.3-8.4c1.1,0,2.2,0.2,3.2,0.6l1.8,0.7l-1.8,0.7
		c-2.4,1-4.1,3.3-4.2,5.9l0,0v0.3c0,2.7,1.6,5.2,4.2,6.2l1.8,0.7l-1.8,0.7C36.2,40.7,35.2,40.9,34.1,40.9z M34.1,25.8
		c-3.7,0-6.8,2.9-6.8,6.7c0,3.7,2.9,6.8,6.7,6.8c0.1,0,0.1,0,0.2,0c0.3,0,0.5,0,0.8,0c-2-1.5-3.3-3.8-3.4-6.4l0,0v-0.3
		c0-2.6,1.2-5.1,3.4-6.7C34.6,25.8,34.3,25.8,34.1,25.8L34.1,25.8z"/>
	<path id="f" fill="#ECF1F4" d="M46.4,28.5h-1.6V25h1.6V28.5z"/>
	<path id="g" fill="#ECF1F4" d="M46.4,39.9h-1.6v-3.6h1.6V39.9z"/>
	<path id="h" fill="#ECF1F4" d="M45.5,37c-1.4,0-2.6-1.1-2.6-2.5l1.6,0c0,0.3,0.1,0.5,0.3,0.7c0.2,0.2,0.5,0.3,0.7,0.3h0.1
		c0.5,0,1-0.5,1-1v-0.1c0-0.6-0.5-1-1.1-1h0c-1.5,0-2.6-1.2-2.6-2.7c0-1.5,1.2-2.6,2.7-2.6c1.5,0,2.6,1.2,2.6,2.7h-1.6
		c0-0.6-0.5-1.1-1.1-1.1c-0.6,0-1.1,0.5-1.1,1.1l0,0c0,0.6,0.5,1,1,1.1c1.4,0,2.6,1.1,2.7,2.5v0.1c0,1.4-1.1,2.6-2.6,2.6L45.5,37
		L45.5,37z"/>
	<path id="i" fill="#ECF1F4" d="M25.2,42.8h3.4c0.6,0,1,0.4,1,1v8.9c0,0.6-0.4,1-1,1h-3.4c-0.6,0-1-0.4-1-1l0,0v-8.9
		C24.2,43.3,24.7,42.8,25.2,42.8C25.2,42.8,25.2,42.8,25.2,42.8z M28,44.4h-2.2v7.7H28V44.4z"/>
	<path id="j" fill="#ECF1F4" d="M44.9,50.6h-1.6c0-1.8-0.6-3-1.6-3.5l-1.2-0.5c-1.6-0.7-4.7-1.9-5.2-2.1c-0.5-0.2-1-0.3-1.5-0.2
		c-1.6,0.4-3.1,1-4.6,1.8l-0.8-1.4c1.6-0.8,3.2-1.5,5-1.9l0.1,0l0.1,0c0.8-0.1,1.6,0,2.3,0.3c0.5,0.2,2.9,1.1,5.3,2.1l1.2,0.5
		C43,46,44.9,47.1,44.9,50.6z"/>
	<path id="k" fill="#ECF1F4" d="M42,55.8L42,55.8c-1.5-0.1-3-0.4-4.3-1c-1.4-0.5-8.7-3.5-9-3.6l0.6-1.5c0.1,0,7.7,3.1,9,3.6l0,0
		c1.2,0.5,2.5,0.8,3.8,0.9c1.4,0,2.7-0.3,4-0.9c1.1-0.5,6.4-3.3,8-4.2c-0.1-0.5-0.4-0.9-0.8-1.2c-0.4-0.2-0.8-0.2-1.2-0.1
		c-1,0.5-8,4-8.1,4L43.6,52l-6.4-2.6l0.6-1.5l5.8,2.3c1.4-0.7,6.9-3.4,7.8-3.9c0.9-0.4,1.9-0.3,2.7,0.1c1,0.6,1.7,1.7,1.7,2.9
		l0.1,0.5l-0.5,0.3c-0.3,0.2-7.4,3.9-8.6,4.5l0,0C45.2,55.4,43.6,55.8,42,55.8L42,55.8z"/>
</g>
</svg>
