<svg xmlns="http://www.w3.org/2000/svg" width="80" height="80" viewBox="0 0 80 80">
  <g id="Group_30544" data-name="Group 30544" transform="translate(-24 -605)">

    <g id="Group_30545" data-name="Group 30545" transform="translate(49 630)">
      <path id="Path_44678" data-name="Path 44678" d="M7,7h4v4H7Z" transform="translate(-1 -1)" fill="none" stroke="#ecf1f4" stroke-linecap="round" stroke-linejoin="round" stroke-width="2"/>
      <path id="Path_44679" data-name="Path 44679" d="M7,21h4v4H7Z" transform="translate(-1 -1)" fill="none" stroke="#ecf1f4" stroke-linecap="round" stroke-linejoin="round" stroke-width="2"/>
      <path id="Path_44680" data-name="Path 44680" d="M21,7h4v4H21Z" transform="translate(-1 -1)" fill="none" stroke="#ecf1f4" stroke-linecap="round" stroke-linejoin="round" stroke-width="2"/>
      <path id="Path_44681" data-name="Path 44681" d="M7,17h8v2" transform="translate(-1 -1)" fill="none" stroke="#ecf1f4" stroke-linecap="round" stroke-linejoin="round" stroke-width="2"/>
      <path id="Path_44682" data-name="Path 44682" d="M19,19v6h6V19H23" transform="translate(-1 -1)" fill="none" stroke="#ecf1f4" stroke-linecap="round" stroke-linejoin="round" stroke-width="2"/>
      <path id="Path_44683" data-name="Path 44683" d="M15,23v2" transform="translate(-1 -1)" fill="none" stroke="#ecf1f4" stroke-linecap="round" stroke-linejoin="round" stroke-width="2"/>
      <path id="Path_44684" data-name="Path 44684" d="M15,7v6h2" transform="translate(-1 -1)" fill="none" stroke="#ecf1f4" stroke-linecap="round" stroke-linejoin="round" stroke-width="2"/>
      <path id="Path_44685" data-name="Path 44685" d="M21,15h4" transform="translate(-1 -1)" fill="none" stroke="#ecf1f4" stroke-linecap="round" stroke-linejoin="round" stroke-width="2"/>
      <path id="Path_44686" data-name="Path 44686" d="M1,8V3A2,2,0,0,1,3,1H8" transform="translate(-1 -1)" fill="none" stroke="#ecf1f4" stroke-linecap="round" stroke-linejoin="round" stroke-width="2"/>
      <path id="Path_44687" data-name="Path 44687" d="M24,1h5a2,2,0,0,1,2,2V8" transform="translate(-1 -1)" fill="none" stroke="#ecf1f4" stroke-linecap="round" stroke-linejoin="round" stroke-width="2"/>
      <path id="Path_44688" data-name="Path 44688" d="M31,24v5a2,2,0,0,1-2,2H24" transform="translate(-1 -1)" fill="none" stroke="#ecf1f4" stroke-linecap="round" stroke-linejoin="round" stroke-width="2"/>
      <path id="Path_44689" data-name="Path 44689" d="M8,31H3a2,2,0,0,1-2-2V24" transform="translate(-1 -1)" fill="none" stroke="#ecf1f4" stroke-linecap="round" stroke-linejoin="round" stroke-width="2"/>
    </g>
  </g>
</svg>
