<svg xmlns="http://www.w3.org/2000/svg" width="80" height="80" viewBox="0 0 80 80">
  <g id="Group_1600" data-name="Group 1600" transform="translate(43 -9573)">
    <circle id="Ellipse_280" data-name="Ellipse 280" cx="40" cy="40" r="40" transform="translate(-43 9573)" fill="#1a1d39"/>
    <path id="gf_logo" data-name="gf logo" d="M13156.351,15685.05a27.841,27.841,0,1,1,5.541.557,27.84,27.84,0,0,1-5.541-.557Zm-19.769-27.229a25.257,25.257,0,1,0,25.254-25.244,25.258,25.258,0,0,0-25.254,25.244Zm24.193,16.67c.1-3.193-3.882-6.139-3.882-6.139a12.18,12.18,0,0,1-7.3-9.076,14.874,14.874,0,0,1,2.491-12,13.351,13.351,0,0,1,7.158-4.9,2.211,2.211,0,0,1,.756-.048c1.484.091,2.973.189,4.422.283-.906.24-1.858.438-2.772.748a12.1,12.1,0,0,0-7.236,6.012,10.86,10.86,0,0,0-1.164,4.387,21.608,21.608,0,0,0,.613,7.635,17.516,17.516,0,0,0,2.891,5.413c.034-.016.094-12.654.082-18.478a.655.655,0,0,1,.366-.657c1.07-.638,2.126-1.307,3.185-1.961.067-.043.142-.074.271-.142v.473q0,5-.008,10l1.721-2.188-.035-6.567a.593.593,0,0,0-.26-.512c-.453-.382-.882-.791-1.366-1.232l4.9-2.7a11.65,11.65,0,0,0,1.1,1.331,2.113,2.113,0,0,0,2.06.6,1.25,1.25,0,0,0,1-1.425.86.86,0,0,0-1.11-.7,1.511,1.511,0,0,0-1.216,1.535,1.762,1.762,0,0,1,.2-1.856,1.824,1.824,0,0,1,3.232,1.527,4.807,4.807,0,0,1-.717,1.521c-1.812,2.468-5.595,7.4-5.595,7.4-.012.571-.008,1.394-.008,2.06.362-.4,1.295-1.339,1.295-1.339a12.981,12.981,0,0,1,4.709,1.763c3.157,2.061,3.725,5.253,2.535,8.336a7.968,7.968,0,0,1-3.854,4.087,15.325,15.325,0,0,1-4.264,1.512c-.13.027-.256.063-.4.1v3.177l.047,3.67Zm1.682-2.827v-2.06c-.839-.09-1.642-.122-2.417-.268-.257-.047-.513-.106-.769-.169a10.052,10.052,0,0,1,3.187,2.5Zm-1.812-13.863q0,2.269.017,4.544a5.843,5.843,0,0,1-3.272,4.858,8.306,8.306,0,0,0,5.035,1.612c0-.124.021-.242.021-.352q-.041-6.454-.071-12.914Zm3.93,10.646a2.17,2.17,0,0,0,.261-.055,6.469,6.469,0,0,0,3.716-3.071,8.583,8.583,0,0,0,.925-4.843,6.108,6.108,0,0,0-2.012-4.362,4.663,4.663,0,0,0-2.891-1.232Zm-.02-17.371,3.091-3.74a6.888,6.888,0,0,1-3.091.573Z" transform="translate(-13165.052 -6044.929)" fill="#fff"/>
  </g>
</svg>
