<?xml version="1.0" encoding="utf-8"?>
<!-- Generator: Adobe Illustrator 25.4.1, SVG Export Plug-In . SVG Version: 6.00 Build 0)  -->
<svg version="1.1" id="Layer_1" xmlns="http://www.w3.org/2000/svg" xmlns:xlink="http://www.w3.org/1999/xlink" x="0px" y="0px"
	 viewBox="0 0 120 120" style="enable-background:new 0 0 120 120;" xml:space="preserve">
<style type="text/css">
	.st0{fill:#111432;}
	.st1{fill:#FFFFFF;}
</style>
<g id="Group_1602" transform="translate(-1919 4357)">
	<circle id="Ellipse_286" class="st0" cx="1980" cy="-4297" r="60"/>
	<g id="Group_1601" transform="translate(2008.032 -4271.003) rotate(180)">
		<path id="Path_10039" class="st1" d="M54.6,3.4c-0.5-0.4-1.1-0.6-1.7-0.3L2,22.7c-0.8,0.3-1.2,1.1-0.9,1.9
			c0.1,0.4,0.4,0.7,0.8,0.9L22,34.8l9.7,19.3c0.3,0.5,0.8,0.9,1.4,0.9h0.1c0.6,0,1.2-0.4,1.4-1L54.9,5.1C55.2,4.5,55,3.9,54.6,3.4z
			 M6.5,24.2L46.9,8.7L22.8,31.9L6.5,24.2z M33,49.7L25.1,34l24.1-23.2L33,49.7z"/>
	</g>
</g>
</svg>
