<?xml version="1.0" encoding="utf-8"?>
<!-- Generator: Adobe Illustrator 25.4.1, SVG Export Plug-In . SVG Version: 6.00 Build 0)  -->
<svg version="1.1" id="Layer_1" xmlns="http://www.w3.org/2000/svg" xmlns:xlink="http://www.w3.org/1999/xlink" x="0px" y="0px"
	 viewBox="0 0 120 120" style="enable-background:new 0 0 120 120;" xml:space="preserve">
<style type="text/css">
	.st0{fill:#111432;}
	.st1{fill:#FFFFFF;}
</style>
<g id="Group_1606" transform="translate(-2086 4357)">
	<g id="Group_1603" transform="translate(167)">
		<circle id="Ellipse_286" class="st0" cx="1979" cy="-4297" r="60"/>
	</g>
	<path id="Path_10049" class="st1" d="M2165.2-4298.4c-1.6,1.6-4.1,1.6-5.6,0c-0.7-0.7-1.2-1.8-1.2-2.8v-4.5l-29.9,29.9
		c-1.6,1.5-4.1,1.5-5.6-0.1c-1.5-1.5-1.5-4,0-5.6l29.9-29.9h-4.5c-2.2,0-4-1.8-4-4c0-2.2,1.8-4,4-4h14.1c2.2,0,4,1.8,4,4v14.1
		C2166.3-4300.2,2165.9-4299.2,2165.2-4298.4z M2124.2-4280.1c-0.7,0.8-0.7,2.1,0.2,2.8c0.8,0.7,1.9,0.7,2.7,0l31.6-31.6
		c0.4-0.4,1-0.4,1.4,0c0.2,0.2,0.3,0.4,0.3,0.7v6.9c-0.1,1.1,0.8,2,1.9,2.1c1.1,0.1,2-0.8,2.1-1.9c0-0.1,0-0.2,0-0.2v-14.1
		c0-1.1-0.9-2-2-2h-14.1c-1.1-0.1-2.1,0.8-2.1,1.9s0.8,2.1,1.9,2.1c0.1,0,0.2,0,0.2,0h6.9c0.6,0,1,0.5,1,1c0,0.3-0.1,0.5-0.3,0.7
		L2124.2-4280.1z"/>
</g>
</svg>
