<?xml version="1.0" encoding="UTF-8"?><svg id="a" xmlns="http://www.w3.org/2000/svg" viewBox="0 0 31.56 31.6"><defs><style>.b{fill:#ecf1f4;}</style></defs><path class="b" d="M6.64,16.05c1.03,.43,2.11,.64,3.19,.64,.97,0,1.94-.18,2.88-.53,.94,.35,1.91,.53,2.88,.53s1.95-.18,2.88-.53c.95,.35,1.92,.53,2.88,.53,3.28,0,6.39-1.94,7.72-5.15,1.76-4.25-.27-9.14-4.52-10.9-1.96-.81-4.1-.84-6.07-.11-1.87-.69-3.89-.69-5.76,0C8.53-1.02,3.83,1,2.12,5.15c-1.76,4.25,.27,9.14,4.52,10.9ZM18.78,2.11h0c.58-.24,1.18-.39,1.79-.46V3.98c-1.07,.35-1.84,1.34-1.85,2.52,0,1.45,1.17,2.65,2.67,2.67,.55-.02,1.04,.43,1.06,1.09,0,.54-.43,.99-.97,.99h-.12c-.27,0-.53-.09-.72-.28-.2-.19-.31-.44-.32-.68l-.02-.19-.84,.19-.74,.02c.02,.7,.31,1.35,.82,1.83,.3,.29,.66,.48,1.03,.6v2.31c-.6-.07-1.19-.22-1.77-.45h-.02c-2.54-1.05-4.17-3.5-4.18-6.24,0-2.74,1.64-5.19,4.18-6.23h0Zm8.81,8.81c-.96,2.33-3.08,3.82-5.42,4.11v-2.3c1.09-.31,1.9-1.31,1.88-2.47v-.16c-.05-1.45-1.28-2.59-2.68-2.53-.58,0-1.05-.49-1.05-1.07,0-.59,.48-1.06,1.06-1.06h0c.59,0,1.06,.48,1.06,1.07h1.6c0-1.19-.79-2.2-1.88-2.54V1.65c.6,.07,1.19,.22,1.77,.46,3.44,1.42,5.08,5.38,3.65,8.81ZM15.59,1.6c.26,0,.53,.02,.79,.05-2.1,1.55-3.37,4.01-3.37,6.7h0c0,2.69,1.28,5.16,3.37,6.7-1.1,.13-2.22-.02-3.28-.44l-.08-.03c-.31-.13-.6-.27-.88-.44l-.06-.03c-.55-.33-1.04-.73-1.46-1.19-.03-.03-.05-.06-.08-.09-.4-.45-.73-.94-.99-1.48-.04-.07-.07-.14-.1-.22-.11-.25-.21-.5-.3-.76,0-.02-.01-.03-.02-.05-.09-.29-.16-.6-.21-.9,0-.04-.01-.08-.02-.12-.04-.31-.07-.63-.07-.95,0-.32,.03-.63,.07-.95,0-.04,.01-.09,.02-.13,.05-.3,.11-.6,.2-.89,.01-.03,.02-.07,.04-.1,.08-.24,.17-.47,.27-.7,.04-.08,.08-.17,.12-.25,.12-.25,.26-.49,.41-.72l.02-.03c.16-.24,.35-.47,.54-.69,.04-.04,.08-.09,.12-.13,.41-.44,.88-.83,1.41-1.16,.04-.02,.07-.04,.11-.07,.27-.16,.55-.3,.85-.43l.05-.02c.81-.33,1.66-.49,2.52-.49ZM3.59,5.76C4.67,3.17,7.19,1.6,9.84,1.6c.26,0,.52,.01,.78,.05-.03,.02-.06,.05-.09,.07-.19,.14-.37,.3-.55,.46-.05,.05-.11,.1-.16,.15-.18,.17-.35,.35-.51,.54-.04,.05-.08,.09-.12,.13-.19,.23-.37,.47-.54,.71-.06,.08-.1,.17-.16,.26-.1,.16-.2,.33-.29,.5-.07,.13-.13,.27-.19,.4-.04,.1-.09,.19-.14,.29-.02,.04-.03,.09-.05,.13-.05,.13-.1,.26-.14,.39-.06,.17-.11,.35-.16,.52-.03,.1-.05,.2-.08,.31-.06,.25-.1,.5-.13,.75,0,.04-.01,.08-.02,.11-.08,.65-.08,1.3,0,1.95,0,.03,0,.06,.01,.08,.03,.27,.08,.53,.14,.79,.02,.09,.04,.18,.07,.27,.05,.19,.11,.38,.17,.57,.04,.12,.08,.24,.13,.35,.02,.05,.03,.1,.06,.16,.05,.11,.1,.22,.16,.33,.05,.11,.1,.23,.16,.34,.12,.22,.24,.44,.38,.65,.02,.04,.04,.08,.07,.11,.17,.26,.36,.51,.56,.75,.01,.02,.03,.03,.04,.05,.19,.22,.39,.43,.6,.63,.03,.03,.07,.06,.1,.09,.2,.18,.4,.35,.62,.51,.02,.02,.04,.03,.06,.05-1.13,.14-2.29-.02-3.37-.47-3.44-1.42-5.08-5.38-3.65-8.81Z"/><path class="b" d="M31.5,25.21c-.2-1.73-1.06-2.54-1.75-2.91-.83-.45-1.88-.49-2.68-.1-.67,.33-4.3,2.14-6.47,3.21-.32-2.69-1.86-3.63-2.57-3.92l-1.06-.43c-2.35-.95-4.89-1.98-5.38-2.15-.73-.26-1.52-.36-2.29-.29l-.13,.02c-1.3,.34-2.57,.8-3.79,1.36v-.39c0-.55-.45-1-1-1H1c-.55,0-1,.45-1,1v8.94c0,.55,.45,1,1,1h3.38c.55,0,1-.45,1-1v-1.15c2.13,.87,6.93,2.82,8,3.2,1.38,.56,2.83,.89,4.39,.99,1.62-.04,3.18-.39,4.7-1.06,1.21-.62,8.31-4.37,8.61-4.53l.48-.26-.06-.54ZM3.78,27.96H1.6v-7.74H3.78v7.74Zm17.99,1.14c-1.28,.57-2.64,.88-3.97,.91-1.31-.08-2.6-.38-3.85-.88-1.16-.42-6.96-2.78-8.57-3.44v-3.9c1.32-.66,2.7-1.2,4.13-1.58,.52-.04,1.05,.03,1.55,.21,.5,.17,3.63,1.44,5.31,2.12l1.07,.43c.46,.18,1.47,.85,1.61,2.98l-5.51-2.24-.6,1.48,6.42,2.62,.32-.16s7.13-3.55,8.09-4.02c.27-.13,.77-.17,1.21,.07,.39,.21,.67,.61,.82,1.17-1.7,.9-7.05,3.72-8.03,4.22Z"/></svg>