<svg xmlns="http://www.w3.org/2000/svg" width="128.527" height="36.863" viewBox="0 0 128.527 36.863">
  <g id="HPayLogo_Dark_3" data-name="HPayLogo Dark 3" transform="translate(0.2 0.283)">
    <g id="HPayLogo_Dark_3-2" data-name="HPayLogo Dark 3">
      <g id="Group_12482" data-name="Group 12482" transform="translate(47.122 2.542)">
        <path id="Path_10747" data-name="Path 10747" d="M186.026,12h3.286v6.465h2.824V12h3.286V27.777h-3.286V20.8h-2.85v7h-3.26Zm11.887,0h3.261V27.777h-3.261Zm5.9,0h3.466l1.977,9.954L211.365,12H214.7l.308,15.777h-2.387l-.257-10.723-2.053,10.723h-2.028L206.155,17l-.231,10.775h-2.388Zm15.892,0h3.62l3.106,15.777h-3l-.59-3.463H220.3l-.616,3.463H216.6Zm2.8,10.338L221.532,16l-.95,6.362ZM228.078,12h3.261V25.6h3.8v2.181H228.1V12Zm10.885,0h3.62l3.106,15.777h-3l-.59-3.463h-2.541l-.616,3.463h-3.082Zm2.8,10.338L240.787,16l-.95,6.336Zm6.957-.821L245.587,12h3.081l1.72,5.541L251.98,12h3l-3.107,9.518v6.26H248.72ZM257.962,12h3.62l3.107,15.777h-3l-.616-3.463h-2.542l-.616,3.463H254.83Zm2.8,10.338L259.785,16l-.949,6.362ZM186,29.958h5.109q4.159,0,4.159,4.541a4.258,4.258,0,0,1-1.181,3.412,5.116,5.116,0,0,1-3.312,1h-1.515v6.824H186Zm4.416,6.67a1.975,1.975,0,0,0,.77-.078,1.536,1.536,0,0,0,.642-.411,3.066,3.066,0,0,0,.359-1.719,5.228,5.228,0,0,0-.128-1.257,1.146,1.146,0,0,0-.513-.718,2.018,2.018,0,0,0-1.155-.256h-1.155v4.438Zm7.548-6.67h3.62l3.106,15.777h-3.03l-.589-3.462H198.53l-.616,3.463h-3.082Zm2.8,10.314-.975-6.338-.95,6.338Zm6.546-.8-3.131-9.518h3.081l1.72,5.541,1.592-5.541h3l-3.106,9.518v6.26h-3.159Z" transform="translate(-186 -12)" fill="#090a31"/>
      </g>
      <g id="Group_12483" data-name="Group 12483" transform="translate(73.603 33.375)">
        <path id="Path_10748" data-name="Path 10748" d="M289,132.2h2.85v2.9H289Z" transform="translate(-289 -132.2)" fill="#febd09"/>
      </g>
      <g id="Group_12484" data-name="Group 12484" transform="translate(0 1.72)">
        <path id="Path_10749" data-name="Path 10749" d="M15.707,43.459H2.1v-2.9h.257a4.262,4.262,0,0,0,1.925-.539A1.213,1.213,0,0,0,4.77,39.3a5.553,5.553,0,0,0,.154-1.462V14.393a4.573,4.573,0,0,0-.154-1.462,1.3,1.3,0,0,0-.513-.718,4.611,4.611,0,0,0-1.925-.539L2.1,11.647V8.8H15.116l-2.567,3.258a2.5,2.5,0,0,0-.565.975,2.7,2.7,0,0,0-.1,1.1l.052.282h-.1v23.7a1.692,1.692,0,0,0,.026.359,2.072,2.072,0,0,1,.026.411,1.692,1.692,0,0,0,.154.693,1.5,1.5,0,0,0,.437.539,5.783,5.783,0,0,0,3,.487h.257v2.847ZM2.613,42.946H15.219v-1.77a6.439,6.439,0,0,1-3.055-.59,2.053,2.053,0,0,1-.59-.744,1.819,1.819,0,0,1-.18-.9,1.816,1.816,0,0,0-.026-.359,2.2,2.2,0,0,1-.026-.411V13.956h.026a2.992,2.992,0,0,1,.8-2.206l1.9-2.437H2.613V11.16a4.873,4.873,0,0,1,1.9.616A1.808,1.808,0,0,1,5.232,12.8a5.758,5.758,0,0,1,.154,1.616V37.866a5.493,5.493,0,0,1-.154,1.591,1.808,1.808,0,0,1-.719,1.026,4.679,4.679,0,0,1-1.926.591v1.873Z" transform="translate(-2.1 -8.8)" fill="#febd09" stroke="#febd09" stroke-miterlimit="10" stroke-width="0.4"/>
      </g>
      <g id="Group_12485" data-name="Group 12485" transform="translate(9.268)">
        <path id="Path_10750" data-name="Path 10750" d="M69.213,38.479H55.272V35.605h.257c1.925.052,2.721-.231,3.055-.513a1.756,1.756,0,0,0,.437-.539,1.2,1.2,0,0,0,.128-.667v-.052a3.386,3.386,0,0,0,.052-.718v-.052L59.3,21.7a7.666,7.666,0,0,1-2.542,2.822,13.542,13.542,0,0,1-5.289,2v9.262H47.648V26.857H44.079v7.235H38.2V9.284h9.4V6.846H44.722l4.7-4.746.95.949,3.748,3.8h-2.7l.052,2.668a13.428,13.428,0,0,1,5.648,1.9,6.631,6.631,0,0,1,2.157,2.309V9.206a2.32,2.32,0,0,0-.1-1.1,2.5,2.5,0,0,0-.565-.975L55.992,3.819H69.213V6.667h-.257a4.292,4.292,0,0,0-1.925.564,1.259,1.259,0,0,0-.539.718,5.353,5.353,0,0,0-.128,1.437V32.835a4.733,4.733,0,0,0,.154,1.462,1.609,1.609,0,0,0,.565.744,4.1,4.1,0,0,0,1.9.564h.257v2.873Zm-13.4-.513H68.7V36.118a4.755,4.755,0,0,1-1.925-.641,2.119,2.119,0,0,1-.77-1v-.026a5.493,5.493,0,0,1-.154-1.591V9.412A5.493,5.493,0,0,1,66,7.821a1.839,1.839,0,0,1,.77-1.026A4.755,4.755,0,0,1,68.7,6.154V4.306H57.044L59,6.744A3.412,3.412,0,0,1,59.663,7.9a2.842,2.842,0,0,1,.1,1.308v7.158l-.488-1.437A6.143,6.143,0,0,0,56.84,11.8,12.579,12.579,0,0,0,51.192,9.95l-.231-.026-.052-3.669h2L49.419,2.818l-.591.59L45.953,6.333h2.131V9.8H38.713V33.6h4.852v-7.26h4.6v8.928h2.8V26.087l.231-.026a12.935,12.935,0,0,0,5.289-1.949,7.045,7.045,0,0,0,2.851-3.8l.513-1.616v1.8l-.1,12.648a4.276,4.276,0,0,1-.052.8,1.966,1.966,0,0,1-.744,1.591,5.116,5.116,0,0,1-3.106.616v1.822ZM46.671,23.137H43.617V13h3.928a10.014,10.014,0,0,1,5.443,1.206,3.765,3.765,0,0,1,1.386,1.642,4.139,4.139,0,0,1,.411,2.079,4.223,4.223,0,0,1-.462,2.232,4.454,4.454,0,0,1-1.54,1.693C51.473,22.727,49.419,23.137,46.671,23.137Zm-2.542-.513h2.542a11.321,11.321,0,0,0,5.828-1.18h0A3.81,3.81,0,0,0,54.27,17.98v-.052a3.512,3.512,0,0,0-.359-1.847,3.7,3.7,0,0,0-1.232-1.437,9.381,9.381,0,0,0-5.16-1.129H44.131Z" transform="translate(-38.2 -2.1)" fill="#febd09" stroke="#febd09" stroke-miterlimit="10" stroke-width="0.4"/>
      </g>
      <g id="Group_12486" data-name="Group 12486" transform="translate(124.065 2.542)">
        <path id="Path_10751" data-name="Path 10751" d="M486.265,12.539H485.7V12h1.694v.539h-.539V14.9h-.616V12.539ZM487.651,12h.642l.513,1.823L489.32,12h.642v2.9h-.513V13.232l-.513,1.669h-.282l-.513-1.669V14.9h-.513V12Z" transform="translate(-485.7 -12)" fill="#090a31"/>
      </g>
    </g>
  </g>
</svg>
