<svg xmlns="http://www.w3.org/2000/svg" width="128.53" height="36.871" viewBox="0 0 128.53 36.871">
  <g id="HPayLogo_Light_3" data-name="HPayLogo Light 3" transform="translate(237.956 67.684)">
    <g id="HPayLogo_Light_3-2" data-name="HPayLogo Light 3" transform="translate(-237.756 -67.401)">
      <g id="Group_30711" data-name="Group 30711" transform="translate(47.245 2.538)">
        <path id="Path_49224" data-name="Path 49224" d="M186.027,12h3.281v6.466h2.819V12h3.281V27.779h-3.281V20.8h-2.846v7h-3.254ZM197.9,12h3.256V27.779H197.9Zm5.9,0h3.461l1.974,9.955,2.1-9.955h3.333l.308,15.779h-2.384l-.256-10.725-2.051,10.725h-2.025L206.124,17l-.231,10.776h-2.384Zm15.869,0h3.614l3.1,15.779h-3l-.589-3.464h-2.538l-.615,3.464h-3.075Zm2.794,10.34L221.48,16l-.948,6.363ZM228.017,12h3.256V25.6h3.794v2.181h-7.024V12Zm10.87,0H242.5l3.1,15.779h-3l-.589-3.464h-2.539l-.615,3.464h-3.075Zm2.795,10.34L240.707,16l-.948,6.337Zm6.947-.821L245.5,12h3.076l1.718,5.542L251.884,12h3l-3.1,9.519v6.262h-3.154ZM257.857,12h3.614l3.1,15.779h-3l-.615-3.464h-2.538l-.615,3.464h-3.076Zm2.794,10.34L259.677,16l-.948,6.363ZM186,29.96h5.1q4.153,0,4.153,4.541a4.264,4.264,0,0,1-1.179,3.413,5.1,5.1,0,0,1-3.307,1h-1.513V45.74H186Zm4.409,6.671a1.969,1.969,0,0,0,.769-.077,1.534,1.534,0,0,0,.641-.411,3.07,3.07,0,0,0,.359-1.719,5.238,5.238,0,0,0-.128-1.257,1.146,1.146,0,0,0-.512-.718,2.013,2.013,0,0,0-1.154-.257h-1.154v4.439Zm7.537-6.671h3.614l3.1,15.779h-3.023l-.59-3.464H198.51L197.9,45.74h-3.077Zm2.794,10.314-.974-6.337-.948,6.337Zm6.537-.8-3.128-9.519h3.076l1.718,5.542,1.589-5.542h3l-3.1,9.519v6.262h-3.155Z" transform="translate(-186 -12)" fill="#fff"/>
      </g>
      <g id="Group_30712" data-name="Group 30712" transform="translate(73.608 33.381)">
        <path id="Path_49225" data-name="Path 49225" d="M289,132.2h2.846v2.9H289Z" transform="translate(-289 -132.2)" fill="#febd09"/>
      </g>
      <g id="Group_30713" data-name="Group 30713" transform="translate(0 1.718)">
        <path id="Path_49226" data-name="Path 49226" d="M15.687,43.463H2.1v-2.9h.256a4.249,4.249,0,0,0,1.923-.54,1.215,1.215,0,0,0,.487-.718,5.562,5.562,0,0,0,.154-1.463V14.393a4.581,4.581,0,0,0-.154-1.463,1.3,1.3,0,0,0-.512-.718,4.6,4.6,0,0,0-1.923-.54L2.1,11.645V8.8h13l-2.564,3.258a2.5,2.5,0,0,0-.564.975,2.7,2.7,0,0,0-.1,1.1l.051.282h-.1V38.126a1.7,1.7,0,0,0,.027.359,2.076,2.076,0,0,1,.027.411,1.7,1.7,0,0,0,.154.693,1.5,1.5,0,0,0,.436.54,5.766,5.766,0,0,0,3,.487h.256v2.848ZM2.612,42.949H15.2v-1.77a6.434,6.434,0,0,1-3.051-.59,2.054,2.054,0,0,1-.589-.744,1.823,1.823,0,0,1-.179-.9,1.819,1.819,0,0,0-.027-.359,2.209,2.209,0,0,1-.027-.41V13.957h.027a3,3,0,0,1,.795-2.207l1.9-2.438H2.612V11.16a4.861,4.861,0,0,1,1.9.616A1.808,1.808,0,0,1,5.227,12.8a5.768,5.768,0,0,1,.154,1.616v23.45a5.5,5.5,0,0,1-.154,1.591,1.808,1.808,0,0,1-.718,1.026,4.667,4.667,0,0,1-1.923.59v1.873Z" transform="translate(-2.1 -8.8)" fill="#febd09" stroke="#febd09" stroke-miterlimit="10" stroke-width="0.4"/>
      </g>
      <g id="Group_30714" data-name="Group 30714" transform="translate(9.254)">
        <path id="Path_49227" data-name="Path 49227" d="M69.168,38.48H55.248V35.607H55.5c1.923.051,2.717-.231,3.051-.513a1.756,1.756,0,0,0,.436-.54,1.2,1.2,0,0,0,.128-.667v-.051a3.39,3.39,0,0,0,.051-.718v-.051l.1-11.365a7.663,7.663,0,0,1-2.538,2.822,13.51,13.51,0,0,1-5.281,2v9.262h-3.82V26.858H44.071v7.235H38.2V9.284h9.383V6.846H44.711L49.4,2.1l.948.949,3.743,3.8H51.4l.051,2.668a13.4,13.4,0,0,1,5.64,1.9,6.628,6.628,0,0,1,2.153,2.309V9.207a2.323,2.323,0,0,0-.1-1.1,2.5,2.5,0,0,0-.564-.975l-2.616-3.31h13.2V6.667h-.256a4.281,4.281,0,0,0-1.923.564,1.259,1.259,0,0,0-.539.718,5.362,5.362,0,0,0-.128,1.437v23.45a4.74,4.74,0,0,0,.154,1.462,1.609,1.609,0,0,0,.564.744,4.087,4.087,0,0,0,1.9.564h.256V38.48Zm-13.382-.513H68.655V36.12a4.744,4.744,0,0,1-1.923-.642,2.119,2.119,0,0,1-.769-1V34.45a5.5,5.5,0,0,1-.154-1.591V9.412a5.5,5.5,0,0,1,.154-1.591A1.839,1.839,0,0,1,66.733,6.8a4.744,4.744,0,0,1,1.923-.642V4.307H57.017l1.948,2.437A3.413,3.413,0,0,1,59.632,7.9a2.846,2.846,0,0,1,.1,1.308v7.158l-.487-1.437A6.142,6.142,0,0,0,56.812,11.8a12.548,12.548,0,0,0-5.641-1.847l-.231-.027-.05-3.668h2L49.4,2.818l-.589.59L45.942,6.333H48.07V9.8H38.712V33.605h4.845v-7.26h4.589v8.928h2.794V26.088l.231-.027a12.9,12.9,0,0,0,5.281-1.95A7.043,7.043,0,0,0,59.3,20.317l.512-1.616v1.8l-.1,12.648a4.282,4.282,0,0,1-.051.8,1.967,1.967,0,0,1-.743,1.591,5.1,5.1,0,0,1-3.1.616v1.82ZM46.66,23.138h-3.05V13h3.921a9.987,9.987,0,0,1,5.435,1.206,3.764,3.764,0,0,1,1.384,1.642,4.144,4.144,0,0,1,.41,2.078,4.228,4.228,0,0,1-.461,2.233,4.452,4.452,0,0,1-1.537,1.693C51.454,22.727,49.4,23.138,46.66,23.138Zm-2.538-.513H46.66a11.29,11.29,0,0,0,5.819-1.18h0a3.812,3.812,0,0,0,1.769-3.464V17.93a3.517,3.517,0,0,0-.359-1.847,3.7,3.7,0,0,0-1.23-1.437,9.356,9.356,0,0,0-5.153-1.13H44.122Z" transform="translate(-38.2 -2.1)" fill="#febd09" stroke="#febd09" stroke-miterlimit="10" stroke-width="0.4"/>
      </g>
      <g id="Group_30715" data-name="Group 30715" transform="translate(124.075 2.538)">
        <path id="Path_49228" data-name="Path 49228" d="M486.264,12.539H485.7V12h1.692v.539h-.539V14.9h-.613V12.539ZM487.648,12h.641l.512,1.82.512-1.82h.641v2.9h-.512V13.23L488.93,14.9h-.282l-.512-1.666V14.9h-.512V12Z" transform="translate(-485.7 -12)" fill="#fff"/>
      </g>
    </g>
  </g>
</svg>
