<svg xmlns="http://www.w3.org/2000/svg" shape-rendering="geometricPrecision" text-rendering="geometricPrecision" image-rendering="optimizeQuality" fill-rule="evenodd" clip-rule="evenodd" viewBox="0 0 512 512"><path fill-rule="nonzero" d="M512 256c0 70.69-28.66 134.69-74.99 181.01C390.69 483.34 326.69 512 256 512c-70.68 0-134.69-28.66-181.01-74.99C28.66 390.69 0 326.69 0 256S28.66 121.31 74.99 74.99C121.31 28.66 185.32 0 256 0c70.69 0 134.69 28.66 181.01 74.99C483.34 121.31 512 185.31 512 256zm-81.82 143.75v-287.5a225.35 225.35 0 0 0-14.49-15.94 229.295 229.295 0 0 0-18.43-16.52v352.42c6.44-5.18 12.6-10.69 18.43-16.52 5.08-5.08 9.92-10.4 14.49-15.94zm30.17-240v192.5c13.78-29.2 21.48-61.82 21.48-96.25s-7.7-67.05-21.48-96.25zm-93.26 292.92V59.33a225.922 225.922 0 0 0-32.92-15.27v423.88c11.44-4.22 22.44-9.35 32.92-15.27zM304 476.71V35.29c-10.7-2.33-21.7-3.88-32.91-4.62v450.66c11.21-.74 22.21-2.29 32.91-4.62zm-63.09 4.62V30.67c-56.35 3.71-107.06 28.09-144.6 65.64C55.44 137.17 30.17 193.63 30.17 256c0 62.37 25.27 118.83 66.14 159.69 37.54 37.55 88.25 61.93 144.6 65.64z"/></svg>