<?xml version="1.0" encoding="utf-8"?>
<!-- Generator: Adobe Illustrator 25.4.1, SVG Export Plug-In . SVG Version: 6.00 Build 0)  -->
<svg version="1.1" id="Layer_1" xmlns="http://www.w3.org/2000/svg" xmlns:xlink="http://www.w3.org/1999/xlink" x="0px" y="0px"
	 viewBox="0 0 120 120" style="enable-background:new 0 0 120 120;" xml:space="preserve">
<style type="text/css">
	.st0{fill:#111432;}
	.st1{fill:#FFFFFF;}
</style>
<g id="Group_1607" transform="translate(-1919 4357)">
	<circle id="Ellipse_286" class="st0" cx="1979" cy="-4297" r="60"/>
	<g id="Group_1601" transform="translate(1949.968 -4322.997)">
		<path id="Path_10039" class="st1" d="M53.6,3.4c-0.5-0.4-1.1-0.6-1.7-0.3L1,22.7c-0.8,0.3-1.2,1.1-0.9,1.9
			c0.1,0.4,0.4,0.7,0.8,0.9L21,34.8l9.7,19.3c0.3,0.5,0.8,0.9,1.4,0.9h0.1c0.6,0,1.2-0.4,1.4-1L54,5.1C54.2,4.5,54,3.9,53.6,3.4z
			 M5.5,24.2L45.9,8.7L21.8,31.9L5.5,24.2z M32,49.7L24.1,34l24.1-23.2L32,49.7z"/>
	</g>
</g>
</svg>
