<?xml version="1.0" encoding="utf-8"?>
<!-- Generator: Adobe Illustrator 27.5.0, SVG Export Plug-In . SVG Version: 6.00 Build 0)  -->
<svg version="1.1" id="Layer_1" xmlns="http://www.w3.org/2000/svg" xmlns:xlink="http://www.w3.org/1999/xlink" x="0px" y="0px"
	 viewBox="0 0 52 52" style="enable-background:new 0 0 52 52;" xml:space="preserve">
<style type="text/css">
	.st0{fill:#FFFFFF;}
</style>
<path class="st0" d="M41.2,47.7H10.8c-3.6,0-6.5-2.9-6.5-6.5v-8.7c0-1.2,1-2.2,2.2-2.2s2.2,1,2.2,2.2v8.7c0,1.2,1,2.2,2.2,2.2h30.3
	c1.2,0,2.2-1,2.2-2.2v-8.7c0-1.2,1-2.2,2.2-2.2s2.2,1,2.2,2.2v8.7C47.7,44.8,44.8,47.7,41.2,47.7z"/>
<path class="st0" d="M26,34.7c-0.6,0-1.1-0.2-1.5-0.6L13.6,23.2c-0.8-0.8-0.8-2.2,0-3.1c0.8-0.8,2.2-0.8,3.1,0l9.3,9.3l9.3-9.3
	c0.8-0.8,2.2-0.8,3.1,0c0.8,0.8,0.8,2.2,0,3.1L27.5,34C27.1,34.5,26.6,34.7,26,34.7z"/>
<path class="st0" d="M26,34.7c-1.2,0-2.2-1-2.2-2.2v-26c0-1.2,1-2.2,2.2-2.2s2.2,1,2.2,2.2v26C28.2,33.7,27.2,34.7,26,34.7z"/>
</svg>
