<?xml version="1.0" encoding="utf-8"?><svg version="1.1" id="Layer_1" xmlns="http://www.w3.org/2000/svg" xmlns:xlink="http://www.w3.org/1999/xlink" x="0px" y="0px" width="122.913px" height="122.912px" viewBox="0 0 122.913 122.912" enable-background="new 0 0 122.913 122.912" xml:space="preserve"><g><path d="M61.456,0c16.979,0,32.318,6.883,43.462,17.994c11.111,11.111,17.995,26.484,17.995,43.462 c0,16.979-6.884,32.317-17.995,43.462c-11.11,11.111-26.483,17.994-43.462,17.994c-16.978,0-32.317-6.883-43.461-17.994 C6.883,93.807,0,78.434,0,61.456c0-16.978,6.883-32.318,17.995-43.462C29.105,6.883,44.478,0,61.456,0L61.456,0z M61.456,33.891 c2.982,0,5.835,0.459,8.522,1.344l21.665-21.436C82.925,8.26,72.567,5.047,61.456,5.047c-10.521,0-20.354,2.885-28.777,7.899 l21.665,21.895c2.262-0.623,4.654-0.918,7.146-0.918L61.456,33.891L61.456,33.891z M74.665,37.267 c2.327,1.278,4.425,2.852,6.261,4.687c2.064,2.065,3.835,4.49,5.146,7.145l21.01-20.78c-1.736-2.393-3.671-4.654-5.769-6.752 c-1.803-1.803-3.704-3.475-5.735-5.015L74.633,37.267L74.665,37.267L74.665,37.267z M87.973,53.95 c0.688,2.393,1.049,4.917,1.049,7.506c0,3.017-0.491,5.933-1.409,8.687l21.403,21.633c5.571-8.752,8.816-19.143,8.816-30.319 c0-10.652-2.95-20.583-8.063-29.073L87.973,53.95L87.973,53.95z M85.58,74.764c-1.245,2.262-2.818,4.326-4.654,6.162 c-2.098,2.098-4.556,3.867-7.276,5.211l20.813,21.01c2.426-1.77,4.721-3.703,6.851-5.834c1.771-1.77,3.409-3.639,4.949-5.637 L85.58,74.764L85.58,74.764L85.58,74.764z M68.831,88.006c-2.359,0.654-4.818,0.982-7.375,0.982c-3.179,0-6.194-0.523-9.046-1.508 l-21.567,21.338c8.817,5.703,19.306,9.014,30.581,9.014c10.587,0,20.518-2.918,28.975-7.998l-21.6-21.828H68.831L68.831,88.006z M47.854,85.416c-2.163-1.213-4.13-2.721-5.867-4.457c-2.196-2.197-4.031-4.754-5.375-7.572L15.536,94.232 c1.803,2.557,3.835,4.916,6.031,7.146c1.671,1.67,3.475,3.277,5.375,4.719l20.879-20.648L47.854,85.416L47.854,85.416z M34.842,68.471c-0.59-2.229-0.885-4.59-0.885-6.982c0-3.113,0.524-6.096,1.475-8.915l-21.37-21.6 c-5.67,8.784-8.948,19.24-8.948,30.482c0,10.456,2.852,20.288,7.833,28.679l21.895-21.697V68.471L34.842,68.471z M37.497,47.985 c1.246-2.196,2.753-4.195,4.523-5.965c2.163-2.163,4.688-3.966,7.473-5.31L28.68,15.667c-2.491,1.803-4.851,3.802-7.047,5.965 c-1.705,1.705-3.311,3.54-4.818,5.474l20.683,20.912L37.497,47.985L37.497,47.985z M77.615,45.363 c-4.13-4.13-9.833-6.687-16.126-6.687s-11.996,2.557-16.126,6.687s-6.687,9.833-6.687,16.125c0,6.293,2.557,11.996,6.687,16.127 c4.13,4.129,9.833,6.686,16.126,6.686s11.996-2.557,16.126-6.686c4.13-4.131,6.687-9.834,6.687-16.127 C84.302,55.196,81.745,49.493,77.615,45.363L77.615,45.363z"/></g></svg>